<?xml version="1.0" encoding="utf-8"?>
<!DOCTYPE svg PUBLIC "-//W3C//DTD SVG 1.1//EN" "http://www.w3.org/Graphics/SVG/1.1/DTD/svg11.dtd">
<svg version="1.1" id="Layer_1" xmlns="http://www.w3.org/2000/svg" xmlns:xlink="http://www.w3.org/1999/xlink" x="0px" y="0px"
	 width="2731px" height="1536px" viewBox="-1365 24.5 2731 1536" enable-background="new -1365 24.5 2731 1536"
	 xml:space="preserve">
<g>
	<rect x="256.314" y="468.969" fill="#356388" width="132.093" height="118.681"/>
	<rect x="849.071" y="468.969" fill="#39B54A" width="129.412" height="126.057"/>
	<rect x="454.79" y="979.918" fill="#39B54A" width="129.417" height="126.057"/>
	<rect x="256.314" y="625.196" fill="#39B54A" width="132.093" height="126.069"/>
	<path fill="#356388" d="M256.314,788.813v148.863c0,34.866-18.779,56.326-50.291,56.326c-29.504,0-50.964-18.779-50.964-57.005
		V468.969h-18.773c-79.127,0-121.369,50.957-121.369,150.198v321.857c0,120.695,69.064,175.007,183.057,175.007
		c107.29,0,191.105-61.688,190.433-177.688V789.479H256.314V788.813z"/>
	<path fill="#3C9CD7" d="M-202.336,468.969h-83.819c-79.124,0-121.369,50.957-121.369,150.198v487.487h139.475v-226.65h61.688
		c115.333,0,164.283-80.468,164.283-213.9C-42.078,536.019-97.734,468.969-202.336,468.969z M-227.818,766.685h-40.231V583.628
		h40.901c32.858,0,48.95,24.809,48.95,86.503C-178.198,735.841-195.631,766.685-227.818,766.685z"/>
	<path fill="#3C9CD7" d="M-1061.969,468.969h-83.819c-79.124,0-121.368,50.957-121.368,150.198v487.487h139.472v-226.65h61.691
		c115.333,0,164.283-80.468,164.283-213.9C-901.71,536.019-957.366,468.969-1061.969,468.969z M-1088.121,766.685h-40.234V583.628
		h40.904c32.858,0,48.95,24.809,48.95,86.503C-1037.831,735.841-1055.937,766.685-1088.121,766.685z"/>
	<path fill="#3C9CD7" d="M-494.694,468.969c-79.124,0-121.368,50.957-121.368,150.198v91.191v12.738H-715.3v-12.738v-241.39h-18.106
		c-79.124,0-121.369,50.957-121.369,150.198v487.487H-715.3V861.903v-12.737l0,0h99.238l0,0v12.737v244.751h138.804V469.636h-17.436
		V468.969z"/>
	<path fill="#356388" d="M1268.156,729.805v-99.914h-65.042V521.934h-40.901c-56.993,0-87.844,36.88-87.844,107.957h-42.241v99.914
		h42.241v281.63c0,70.398,50.291,101.916,113.326,101.916c24.809,0,56.325-4.694,79.794-12.738V998.018
		c-10.058,2.014-24.142,2.681-37.553,2.681c-20.787,0-26.822-10.057-26.822-27.489V729.805H1268.156z"/>
	<path fill="#356388" d="M683.448,614.472c-42.248,0-75.772,18.101-99.241,51.632v-40.907H541.96
		c-56.993,0-87.837,36.879-87.837,107.957v209.218h129.411V772.72c0-28.83,14.084-50.291,35.539-50.291
		c28.836,0,34.871,22.128,34.871,42.242v341.304h128.744V716.394C784.029,653.365,739.101,614.472,683.448,614.472z"/>
	<path fill="#356388" d="M936.909,629.891c-56.993,0-87.838,36.88-87.838,107.957v368.127h129.412V629.891H936.909z"/>
</g>
</svg>
