<?xml version="1.0" standalone="no"?>
<!DOCTYPE svg PUBLIC "-//W3C//DTD SVG 20010904//EN"
 "http://www.w3.org/TR/2001/REC-SVG-20010904/DTD/svg10.dtd">
<svg version="1.0" xmlns="http://www.w3.org/2000/svg"
 width="592.000000pt" height="592.000000pt" viewBox="0 0 592.000000 592.000000"
 preserveAspectRatio="xMidYMid meet">
<g transform="translate(0.000000,592.000000) scale(0.100000,-0.100000)"
fill="#000000" stroke="none">
<path d="M180 5678 l0 -243 443 -1 c465 -1 510 -4 685 -50 144 -37 298 -115
382 -194 16 -15 30 -25 30 -22 0 4 4 2 8 -3 4 -6 50 -46 102 -90 52 -44 97
-82 100 -85 3 -3 41 -34 85 -69 97 -78 100 -81 148 -125 20 -19 37 -32 37 -30
0 4 41 -30 80 -66 9 -8 38 -33 65 -54 28 -22 57 -47 66 -55 9 -9 34 -29 54
-46 21 -16 47 -38 59 -48 11 -11 49 -42 84 -70 34 -28 62 -55 62 -60 0 -6 3
-8 6 -4 4 3 12 1 18 -6 7 -7 34 -30 61 -52 27 -22 59 -49 71 -60 12 -11 39
-33 59 -50 19 -16 34 -34 33 -40 -2 -7 -70 -68 -153 -136 -138 -114 -190 -158
-219 -184 -6 -6 -31 -26 -56 -45 -24 -19 -52 -42 -61 -50 -8 -8 -36 -31 -60
-51 -24 -20 -107 -89 -184 -154 -77 -64 -149 -124 -160 -133 -11 -9 -45 -37
-75 -62 -30 -25 -57 -47 -60 -50 -3 -3 -54 -46 -115 -96 -127 -105 -223 -174
-242 -174 -7 0 -13 -4 -13 -10 0 -5 -9 -10 -20 -10 -11 0 -20 -4 -20 -10 0 -5
-8 -10 -18 -10 -10 0 -22 -3 -26 -7 -4 -5 -11 -8 -14 -8 -4 -1 -36 -10 -72
-22 -120 -39 -250 -60 -369 -59 -45 1 -81 -3 -81 -7 0 -5 -5 -5 -11 -1 -16 9
-220 11 -226 1 -2 -4 -9 -4 -16 0 -6 3 -40 6 -76 4 -92 -2 -143 -1 -153 5 -4
3 -8 1 -8 -5 0 -5 -11 -6 -27 -2 -15 4 -46 4 -70 1 -24 -4 -43 -4 -43 -1 0 5
-41 6 -83 2 -4 -1 -6 -110 -5 -243 l3 -243 435 1 c513 1 557 4 769 51 130 28
252 69 361 121 73 34 170 89 180 102 3 4 12 9 20 12 14 6 173 131 215 171 11
10 41 35 68 55 26 20 47 40 47 44 0 4 5 8 11 8 7 0 19 8 28 18 9 9 54 49 101
87 47 38 92 75 100 82 44 37 70 60 87 73 10 8 47 40 83 69 36 30 67 57 70 60
3 4 25 22 50 41 25 19 50 39 56 45 6 5 32 28 59 50 27 22 59 49 71 60 13 11
36 30 51 42 15 12 37 30 48 40 11 10 45 38 75 63 67 54 79 64 105 87 12 10 43
36 70 58 28 22 59 49 70 60 19 19 36 20 697 20 373 0 678 -1 678 -2 0 -1 -46
-42 -102 -90 -57 -48 -105 -90 -108 -93 -3 -3 -34 -30 -70 -60 -36 -30 -67
-57 -70 -60 -3 -3 -50 -43 -105 -90 -156 -132 -172 -149 -195 -198 -43 -91 -4
-221 84 -278 124 -81 276 -64 396 45 25 23 50 45 55 49 12 8 138 115 145 122
5 5 108 93 155 132 11 9 31 27 45 38 14 12 49 43 79 68 30 26 66 57 79 70 14
12 39 33 55 45 16 12 36 29 45 38 10 8 110 95 223 192 179 153 209 183 228
226 26 62 27 119 1 175 -24 50 -36 64 -115 131 -33 28 -75 64 -94 81 -20 17
-49 42 -65 55 -16 13 -34 29 -40 34 -21 19 -211 181 -235 201 -13 10 -28 24
-35 29 -6 6 -42 37 -81 70 -38 33 -72 62 -75 65 -4 5 -271 231 -355 302 -11 9
-31 26 -45 38 -102 88 -254 96 -367 18 -88 -60 -125 -180 -84 -272 22 -51 50
-78 271 -266 85 -73 166 -142 180 -154 14 -11 55 -46 90 -76 36 -30 75 -65 88
-76 l24 -21 -26 -5 c-14 -3 -26 -2 -26 1 0 4 -15 6 -32 5 -86 -5 -124 -6 -133
-4 -8 1 -44 1 -100 -1 -5 0 -48 0 -95 1 -47 1 -89 1 -95 0 -5 -1 -23 -2 -40
-1 -31 1 -177 1 -230 0 -16 0 -75 0 -130 0 -55 0 -109 0 -120 0 -11 0 -62 1
-113 2 -50 1 -95 0 -98 -3 -3 -4 -18 -3 -32 1 -15 4 -38 5 -52 1 -18 -5 -32
-1 -50 16 -14 13 -71 61 -127 108 -56 46 -109 90 -116 97 -8 8 -29 25 -47 39
-18 14 -42 33 -54 43 -11 11 -38 33 -60 50 -21 18 -49 41 -62 52 -12 11 -40
34 -61 51 -69 56 -238 198 -243 204 -3 3 -25 21 -50 41 -25 20 -55 45 -67 55
-12 11 -36 30 -53 44 -18 14 -37 30 -44 36 -10 9 -243 204 -274 229 -7 5 -21
17 -30 25 -9 9 -42 36 -72 60 -30 25 -56 48 -58 53 -2 4 -7 7 -11 7 -5 0 -39
20 -77 45 -73 48 -245 135 -267 135 -7 0 -17 4 -22 9 -6 6 -59 23 -118 40
-100 28 -158 41 -262 57 -22 3 -51 8 -65 11 -14 3 -244 7 -512 10 l-488 5 0
-244z"/>
<path d="M2657 2804 c-2 -3 -23 -5 -46 -6 -23 0 -41 -3 -42 -7 0 -3 -2 -13 -4
-21 -2 -8 -6 -28 -10 -45 -3 -16 -8 -41 -11 -55 -3 -14 -8 -36 -10 -50 -2 -14
-9 -45 -14 -70 -5 -25 -12 -56 -14 -70 -3 -14 -25 -126 -50 -250 -25 -124 -47
-236 -50 -250 -5 -29 -85 -426 -92 -455 -2 -11 -7 -33 -10 -50 -3 -16 -16 -84
-30 -150 -13 -66 -27 -131 -29 -145 -6 -33 -12 -64 -25 -126 -6 -28 -13 -64
-16 -80 -3 -16 -12 -60 -20 -99 -8 -38 -17 -81 -20 -95 -2 -14 -7 -38 -11 -55
-4 -16 -8 -39 -9 -50 -1 -11 -6 -36 -9 -55 l-7 -35 211 0 211 0 15 67 c8 36
17 83 21 103 3 21 8 47 10 59 3 11 7 32 10 46 3 14 12 59 20 100 9 41 17 84
19 95 2 11 6 31 9 45 2 14 9 48 16 75 6 28 13 67 15 88 2 21 7 41 9 46 3 5 8
26 12 46 3 21 8 47 10 59 3 11 7 32 10 46 2 14 9 45 14 70 5 25 12 61 15 80 4
19 11 55 16 80 13 56 15 65 24 118 l7 43 210 -1 c275 -2 334 -18 365 -100 16
-42 9 -172 -11 -238 -3 -9 -8 -33 -10 -52 -3 -19 -23 -120 -45 -225 -22 -104
-42 -205 -45 -222 -3 -18 -8 -47 -11 -65 -3 -17 -8 -34 -10 -37 -2 -4 -6 -26
-10 -51 -4 -25 -8 -48 -11 -51 -2 -4 -6 -22 -9 -40 -4 -32 -7 -50 -20 -109
-14 -63 -13 -68 3 -72 35 -8 402 -2 410 8 7 8 23 75 38 164 3 14 7 32 9 40 3
8 7 33 10 55 4 22 8 48 11 57 5 16 9 36 19 88 8 42 14 70 36 174 11 56 23 112
25 126 3 14 20 102 39 196 66 322 49 475 -62 578 -65 60 -222 116 -368 130
-22 3 -140 5 -262 5 l-223 1 5 40 c3 22 12 70 21 107 8 37 17 81 19 98 5 40
15 87 20 96 3 3 7 28 10 53 3 26 10 57 14 69 5 12 12 46 16 75 l7 53 -43 -1
c-24 -1 -53 1 -64 3 -11 2 -24 2 -30 -1 -12 -7 -170 -6 -183 2 -5 3 -12 3 -15
0z"/>
<path d="M619 2208 c0 -2 -2 -12 -3 -23 -2 -11 -13 -69 -25 -130 -22 -108 -26
-125 -36 -175 -3 -14 -8 -41 -11 -60 -3 -19 -7 -43 -10 -52 -3 -9 -7 -27 -9
-40 -3 -13 -9 -45 -15 -73 -13 -65 -19 -94 -25 -128 -3 -15 -12 -59 -20 -97
-8 -38 -17 -82 -20 -97 -5 -30 -21 -111 -30 -153 -4 -23 -20 -100 -31 -160 -3
-14 -7 -32 -9 -40 -2 -8 -7 -31 -10 -50 -3 -19 -29 -147 -57 -285 -27 -137
-52 -261 -54 -275 -3 -14 -7 -33 -10 -43 -3 -10 -8 -35 -10 -55 -3 -20 -9 -53
-14 -72 -5 -19 -12 -53 -15 -75 -4 -22 -10 -56 -16 -75 -5 -19 -9 -38 -9 -42
0 -5 97 -8 215 -8 118 0 215 1 215 3 0 2 18 91 74 377 3 14 7 35 10 46 2 12 7
37 10 55 4 19 10 50 14 69 l8 34 229 2 c206 1 280 5 380 18 45 7 179 38 190
45 6 3 12 6 15 6 3 0 35 17 71 37 120 68 267 221 341 358 33 59 86 184 92 213
2 7 8 32 15 57 35 122 44 331 20 450 -19 93 -82 213 -144 275 -30 30 -97 75
-145 97 -50 24 -79 33 -165 54 -28 7 -1004 19 -1006 12z m746 -362 c22 -3 54
-9 70 -13 17 -4 37 -7 45 -8 31 -3 98 -37 118 -60 34 -39 52 -117 48 -208 -2
-45 -6 -93 -10 -107 -3 -14 -8 -36 -10 -50 -17 -92 -36 -152 -73 -227 -20 -40
-39 -73 -44 -73 -5 0 -9 -5 -9 -11 0 -12 -13 -26 -60 -61 -48 -35 -108 -55
-225 -73 -16 -3 -41 -7 -55 -10 -14 -3 -100 -8 -192 -12 l-168 -6 6 49 c3 27
7 51 9 55 2 3 7 21 10 40 3 19 13 68 21 109 9 41 18 89 21 105 2 17 11 62 20
100 8 39 17 81 19 95 46 238 66 339 74 356 8 21 13 21 177 19 92 -2 186 -6
208 -9z"/>
<path d="M4268 2188 c-2 -31 -3 -39 -11 -63 -3 -11 -8 -36 -11 -55 -3 -19 -8
-46 -11 -60 -3 -14 -8 -38 -10 -55 -3 -16 -8 -37 -10 -45 -2 -8 -7 -28 -10
-45 -2 -16 -7 -41 -10 -55 -12 -55 -36 -176 -40 -200 -2 -14 -7 -36 -10 -50
-3 -14 -8 -38 -11 -55 -3 -16 -12 -64 -21 -105 -8 -41 -17 -84 -19 -95 -2 -11
-6 -31 -9 -45 -6 -26 -9 -38 -20 -105 -3 -22 -10 -56 -15 -75 -5 -19 -11 -47
-14 -62 -2 -15 -18 -96 -35 -180 -17 -84 -33 -166 -36 -183 -3 -16 -8 -39 -10
-50 -2 -11 -6 -31 -9 -45 -3 -14 -23 -117 -46 -230 -23 -113 -44 -218 -46
-235 -3 -16 -9 -42 -14 -57 -4 -14 -6 -29 -3 -32 4 -3 100 -6 214 -6 l208 0
10 38 c6 20 13 53 16 72 3 19 10 55 15 80 5 25 12 56 14 70 3 14 8 36 11 50 3
14 7 36 10 50 8 42 26 133 32 160 3 14 6 34 8 45 2 19 10 20 241 21 214 1 307
6 369 18 11 2 40 7 65 12 25 4 47 8 50 9 3 1 19 5 35 10 182 51 382 236 490
454 47 93 90 215 100 279 3 21 8 49 11 62 3 14 8 79 10 145 4 145 -12 230 -61
332 -75 152 -201 241 -410 290 -16 4 -249 8 -517 10 l-488 4 -2 -23z m757
-342 c162 -32 180 -39 216 -75 73 -73 81 -212 24 -437 -21 -82 -63 -186 -90
-222 -27 -37 -89 -94 -118 -109 -29 -15 -123 -39 -189 -49 -16 -2 -43 -6 -60
-9 -18 -3 -102 -8 -187 -11 -169 -7 -175 -5 -160 50 4 17 11 51 14 76 4 24 8
47 10 51 2 3 6 19 9 35 3 16 8 45 12 64 3 19 8 44 10 55 2 11 13 63 24 115 20
91 23 109 35 175 10 55 56 280 60 291 3 12 331 11 390 0z"/>
</g>
</svg>
