<?xml version="1.0" encoding="utf-8"?><!DOCTYPE svg PUBLIC "-//W3C//DTD SVG 1.1//EN" "http://www.w3.org/Graphics/SVG/1.1/DTD/svg11.dtd"><svg version="1.1" id="Layer_1" xmlns="http://www.w3.org/2000/svg" xmlns:xlink="http://www.w3.org/1999/xlink" x="0px" y="0px" width="1200px" height="675px" viewBox="-594 -331.5 1200 675" enable-background="new -594 -331.5 1200 675" xml:space="preserve"><g><path fill="#3970FD" d="M-224.808-46.94c9.495-29.805,3.771-89.28-14.591-111.191c-1.948-2.305-5.455-2.615-7.759-0.621 c-0.445,0.355-0.798,0.844-1.108,1.331l-22.621,35.837c-5.543,7.184-15.701,8.826-23.242,3.814 c-25.278-16.764-54.996-25.682-85.333-25.635c-30.338-0.046-60.055,8.871-85.333,25.635c-7.588,5.011-17.699,3.325-23.242-3.814 l-22.62-35.837c-1.596-2.616-5.014-3.416-7.63-1.818c-0.441,0.312-0.886,0.666-1.239,1.108 c-18.409,21.955-24.085,81.433-14.593,111.147c3.149,9.934,3.99,20.403,2.128,30.559c-1.818,10.113-3.681,22.265-3.681,30.781 c0,87.11,69.944,157.718,156.163,157.718c86.266,0,156.167-70.607,156.167-157.718c0-8.516-1.818-20.667-3.683-30.781 C-228.754-26.625-227.999-37.093-224.808-46.94z M-379.509,136.946c-66.706,0-120.903-54.819-120.903-122.236 c-0.088-47.012,26.832-89.945,69.233-110.348c16.146-7.763,33.799-11.753,51.716-11.753c18.493,0,36.015,4.214,51.669,11.797 c42.402,20.404,69.322,63.293,69.28,110.349C-258.559,82.127-312.803,136.946-379.509,136.946L-379.509,136.946z"/><path fill="#3970FD" d="M-327.125,61.726l-30.872-54.111l-26.521-45.107c-0.622-1.108-1.776-1.729-3.015-1.729h-25.282 c-1.953,0-3.507,1.598-3.507,3.504c0,0.621,0.181,1.243,0.492,1.774l25.366,43.065l-34.016,52.426 c-0.71,1.064-0.756,2.483-0.134,3.548c0.58,1.153,1.777,1.861,3.061,1.861h25.505c1.197,0,2.306-0.618,2.927-1.683l18.405-28.964 l16.498,28.964c0.621,1.064,1.776,1.774,2.973,1.774h25.148c1.243,0,2.393-0.71,2.973-1.774 C-326.504,64.209-326.504,62.789-327.125,61.726L-327.125,61.726z"/><path d="M-89.22-77.009h32.287v177.055H-89.22v-75.4h-36.502v75.487h-32.291V-77.009h32.291v76.905h36.502V-77.009z  M42.728,100.133l-6.739-36.812H-2.779l-6.21,36.812h-32.286L-5.659-77.009h43.506l37.347,177.142h-32.51H42.728z M1.438,38.926 h30.023l-15.39-84.801L1.438,38.926z M147.133,67.846V29.923c0-3.015-0.618-5.011-1.684-6.031 c-1.063-1.064-3.192-1.552-6.211-1.552h-22.709c-19.337,0-28.914-9.359-28.914-28.075v-43.466 c0-18.539,10.111-27.808,30.333-27.808h30.872c20.223,0,30.338,9.313,30.338,27.808v24.705h-32.644v-20.225 c0-3.018-0.533-5.012-1.6-6.032c-1.15-1.064-3.19-1.553-6.205-1.553h-10.646c-3.195,0-5.412,0.489-6.567,1.553 c-1.063,1.021-1.596,3.015-1.596,6.032v35.658c0,3.018,0.533,4.968,1.596,6.032c1.155,1.021,3.372,1.554,6.567,1.554h22.087 c19.689,0,29.536,9.179,29.536,27.542V72.37c0,18.538-10.288,27.763-30.691,27.763h-30.25c-20.398,0-30.603-9.313-30.603-27.763 V47.931h32.291v19.915c0,3.015,0.534,5.056,1.596,6.032c1.155,1.064,3.284,1.507,6.476,1.507h10.732 c3.019,0,4.968-0.442,6.211-1.507C146.515,72.901,147.133,70.86,147.133,67.846L147.133,67.846z M265.822-77.009h32.288V72.37 c0,18.45-10.201,27.676-30.604,27.676h-34.239c-20.403,0-30.603-9.226-30.603-27.676V-77.009h32.286V67.846 c0,3.015,0.621,5.056,1.688,6.032c1.063,0.976,3.191,1.507,6.207,1.507h14.902c3.196,0,5.324-0.531,6.386-1.507 c1.155-0.977,1.688-3.106,1.688-6.032V-77.009z M357.099,31.076v69.057h-32.286V-77.009h65.108c20.399,0,30.515,9.27,30.515,27.764 V3.268c0,15.345-6.744,24.304-20.402,26.965l29.447,69.899h-34.771l-26.968-69.057H357.099z M357.099-52.351V7.215h23.242 c3.014,0,5.055-0.531,6.208-1.551c1.062-1.064,1.598-3.061,1.598-6.076v-44.309c0-3.018-0.536-5.012-1.598-6.032 c-1.153-1.064-3.194-1.598-6.208-1.598H357.099z M518.186,100.133l-6.738-36.812h-38.767l-6.211,36.812h-32.198l35.569-177.142 h43.559l37.253,177.142H518.186z M476.939,38.926h30.074l-15.437-84.801L476.939,38.926L476.939,38.926z"/></g></svg>