<?xml version="1.0" encoding="utf-8"?>
<!DOCTYPE svg PUBLIC "-//W3C//DTD SVG 1.1//EN" "http://www.w3.org/Graphics/SVG/1.1/DTD/svg11.dtd">
<svg version="1.1" id="Layer_1" xmlns="http://www.w3.org/2000/svg" xmlns:xlink="http://www.w3.org/1999/xlink" x="0px" y="0px"
	 width="1200px" height="675px" viewBox="-917 -366.5 1200 675" enable-background="new -917 -366.5 1200 675" xml:space="preserve"
	>
<rect id="Background" x="-917" y="-366.5" fill="#505C90" width="1200" height="675"/>
<g>
	<path fill="#FFFFFF" d="M-694.273,140.719h-38.979l34.711-178.377h74.804c22.46,0,38.979,5.94,49.188,17.634
		c10.395,11.88,13.365,28.214,9.281,49.561c-1.671,8.723-4.641,16.706-8.539,23.942c-4.083,7.24-9.281,13.921-15.777,19.864
		c-7.795,7.239-16.334,12.435-25.801,15.592c-9.467,3.154-21.532,4.637-36.381,4.637h-33.411L-694.273,140.719z M-609.074-1.463
		c-5.011-5.384-14.85-8.168-29.513-8.168h-26.543l-14.479,74.805h23.574c15.591,0,27.285-2.97,35.082-8.912
		c7.61-5.938,12.808-15.777,15.592-29.51C-602.948,13.386-604.248,4.105-609.074-1.463L-609.074-1.463z"/>
	<path fill="#FFFFFF" d="M-536.868-85.176h38.608l-9.281,47.518h34.339c21.718,0,36.567,3.712,44.734,11.324
		c8.167,7.609,10.766,19.861,7.425,36.752l-16.149,83.157h-39.165l15.406-79.073c1.67-8.909,1.114-15.036-1.856-18.377
		c-2.97-3.341-9.467-4.825-19.304-4.825h-30.813l-19.861,102.275h-38.793L-536.868-85.176z"/>
	<path fill="#FFFFFF" d="M-390.973,140.719h-38.979l34.71-178.377h74.989c22.461,0,38.98,5.94,49.189,17.634
		c10.396,11.88,13.365,28.214,9.281,49.561c-1.669,8.723-4.641,16.706-8.538,23.942c-4.084,7.24-9.281,13.921-15.778,19.864
		c-7.796,7.239-16.334,12.435-25.801,15.592c-9.466,3.154-21.531,4.637-36.38,4.637h-33.412L-390.973,140.719L-390.973,140.719z
		 M-305.588-1.463c-5.012-5.384-14.85-8.168-29.514-8.168h-26.729l-14.478,74.805h23.573c15.592,0,27.286-2.97,35.082-8.912
		c7.61-5.938,12.807-15.777,15.591-29.51C-299.648,13.386-300.763,4.105-305.588-1.463L-305.588-1.463z"/>
	<path fill="#FFFFFF" d="M-145.4-2.761c-10.581-25.243-19.49-47.147-10.766-62.367c3.341-4.641,7.053-7.055,11.137-7.055
		c8.353,0,15.962,9.096,15.962,9.096l10.581,12.808l-6.682-15.221c-0.372-0.557-11.695-26.358-31.927-26.358
		c-7.053,0-14.478,3.156-21.718,9.466l-0.185,0.187c-17.634,20.418-0.372,59.026,15.034,92.994l11.322,26.357
		c5.198,13.552,10.396,29.699,7.24,41.579c-4.826,18.562-21.346,31.186-21.531,31.37l-10.581,8.168l12.807-4.086
		c1.3-0.369,29.699-9.65,36.567-34.339c4.269-20.233-1.113-40.462-6.497-56.056c0.743-0.557-0.741,0.557,0,0l-9.837-25.43"/>
	<path fill="#0F0F0F" d="M-114.03-74.411l-13.18-14.478l9.468,17.262c0.185,0.187,11.693,21.718-2.971,46.776
		c-5.382,7.796-13.734,15.593-24.315,23.387l-19.118,12.437c-0.187-0.185-0.187-0.372,0,0l-0.743,0.556
		c-21.346,12.252-41.208,19.678-41.579,19.862c-29.513,13.178-48.074,33.596-50.674,56.24c-2.041,17.079,5.94,33.785,21.533,45.48
		l0.185,0.185c9.837,5.938,20.418,8.908,31.555,8.908c29.142,0,51.973-20.229,52.901-21.158l14.293-12.808l-16.892,8.907
		c-0.185,0-14.292,7.425-28.956,7.425c-13.178,0-22.459-5.754-28.028-17.445c-7.055-24.874,17.634-41.952,46.033-61.627
		c3.712-2.6,7.61-5.384,11.509-7.983l0.185-0.185l16.89-12.621c0.187-0.372,0.744-0.743,0.744-0.743
		c13.921-11.509,32.298-29.512,36.567-54.757C-95.284-53.621-113.289-73.482-114.03-74.411L-114.03-74.411z"/>
	<path fill="#FFFFFF" d="M-93.612,61.276h36.195l-6.497,32.857h-36.195L-93.612,61.276z"/>
	<path fill="#FFFFFF" d="M52.014,1.42c2.378-11.965,5.291-25.736,7.742-35.468h-0.995c-6.892,9.197-14.208,19.281-21.598,28.017
		L6.471,28.485h92.782l-5.57,28.165H-36.35l5.036-25.642l85.197-94.722h44.606L67.112,94.129H33.949L52.014,1.42z"/>
</g>
<g>
	<path fill="#FFFFFF" d="M-710.91-201.98l18.26,60.72l15.4-60.72h19.58l17.71,60.72l17.05-60.72h17.05L-630.28-123h-20.35
		l-16.83-58.96L-682.2-123h-20.24l-26.18-78.98H-710.91z"/>
	<path fill="#FFFFFF" d="M-584.521-201.98v21.01h13.64c7.48,0.148,13.365,1.688,17.655,4.62c4.29,2.934,6.471,8.508,6.545,16.72
		V-123h-15.4v-34.98c0-3.666-0.734-6.27-2.2-7.81c-1.468-1.54-4.144-2.31-8.03-2.31l-12.21-0.11V-123h-15.18v-78.98H-584.521z"/>
	<path fill="#FFFFFF" d="M-500.923-180.97c3.373,0.074,6.617,0.459,9.734,1.155c3.117,0.698,5.922,2.293,8.416,4.785
		c2.127,2.054,3.611,4.474,4.455,7.26c0.842,2.788,1.266,5.648,1.266,8.58V-123h-41.141c-5.94,0-10.488-1.631-13.64-4.895
		c-3.154-3.262-4.584-7.791-4.29-13.585c0.512-6.966,2.97-11.476,7.37-13.53c4.4-2.052,9.642-3.08,15.73-3.08l20.131-0.11
		c0.219-4.766-1.01-7.736-3.686-8.91c-2.678-1.172-6.068-1.76-10.175-1.76l-25.52-0.11v-11.99H-500.923z M-511.922-134.66h19.14
		v-11.99h-18.041c-0.147,0.074-0.293,0.11-0.44,0.11c-0.147,0-0.294,0-0.44,0c-2.054,0.074-3.96,0.459-5.72,1.155
		c-1.76,0.698-2.678,2.329-2.75,4.895c-0.148,2.86,0.641,4.548,2.365,5.06c1.722,0.514,3.685,0.808,5.885,0.88V-134.66z"/>
	<path fill="#FFFFFF" d="M-458.573-180.97v-21.01h15.29v21.01h16.17v11.55h-16.17v23.43c-0.074,5.794,1.246,9.168,3.96,10.12
		c2.712,0.954,6.452,1.43,11.22,1.43c0.146,0,0.312,0,0.495,0c0.183,0,0.348,0,0.495,0V-123h-13.97
		c-5.794,0-10.158-1.612-13.091-4.84c-2.934-3.226-4.399-7.626-4.399-13.2v-28.38h-10.78v-11.55H-458.573z"/>
	<path fill="#FFFFFF" d="M-398.967-202.224l-9.238,26.265h-12.3l6.606-26.265H-398.967z"/>
	<path fill="#FFFFFF" d="M-357.364-135.1c0.146,0.074,0.292,0.11,0.439,0.11c0.146,0,0.293,0,0.44,0
		c1.832-0.072,3.52-0.476,5.06-1.21c1.54-0.732,2.311-2.236,2.311-4.51c0-2.126-0.734-3.556-2.2-4.29
		c-1.468-0.732-3.044-1.172-4.73-1.32c-0.22,0-0.439,0-0.659,0c-0.221,0-0.44,0-0.66,0l-13.2-0.11
		c-6.16,0.074-11.019-0.77-14.575-2.53c-3.558-1.76-5.373-6.232-5.444-13.42c-0.074-6.746,1.76-11.512,5.5-14.3
		c3.739-2.786,8.726-4.18,14.96-4.18l32.89-0.11v12.1h-27.061c-0.22,0.074-0.422,0.11-0.604,0.11c-0.184,0-0.385,0-0.605,0
		c-0.514,0-1.009,0-1.484,0c-0.478,0-1.009,0-1.595,0c-1.32,0.074-2.586,0.368-3.796,0.88c-1.21,0.514-1.998,1.468-2.364,2.86
		c-0.588,2.568-0.074,4.328,1.54,5.28c1.612,0.954,3.481,1.43,5.609,1.43l13.86-0.11c5.426,0.074,9.972,1.339,13.64,3.795
		c3.666,2.458,5.61,6.693,5.83,12.705c0,0.074,0,0.129,0,0.165c0,0.038,0,0.093,0,0.165c0.072,4.694-1.265,8.965-4.015,12.815
		S-344.973-123-350.104-123h-39.49v-12.1H-357.364z"/>
	<path fill="#FFFFFF" d="M-258.256-201.98l32.34,56.76l-0.771-56.76h16.94V-123h-19.25l-33.99-59.73l0.771,59.73h-17.051v-78.98
		H-258.256z"/>
	<path fill="#FFFFFF" d="M-181.312-124.485c-3.85-0.99-7.242-3.061-10.175-6.215c-2.348-2.566-4.053-5.5-5.115-8.8
		c-1.063-3.3-1.705-6.672-1.925-10.12c0-0.366,0-0.732,0-1.1c0-0.366,0-0.732,0-1.1c0-0.512,0-1.007,0-1.485
		c0-0.476,0.036-0.971,0.11-1.485c0.22-3.3,0.861-6.545,1.925-9.735c1.063-3.19,2.731-6.031,5.005-8.525
		c2.933-3.226,6.325-5.335,10.175-6.325c3.851-0.99,7.827-1.485,11.936-1.485l22.33-0.11v12.1h-20.24
		c-4.254,0.074-7.664,0.715-10.23,1.925c-2.567,1.21-3.924,4.235-4.069,9.075l34.54-0.11v12.1h-34.54
		c0.146,5.06,1.43,8.14,3.85,9.24s5.866,1.65,10.34,1.65l20.351-0.11v12.1h-22.33C-173.484-123-177.461-123.495-181.312-124.485z"/>
	<path fill="#FFFFFF" d="M-108.326-123h-16.94l-20.13-57.97h15.95l12.76,40.59l12.65-40.59h16.279l12.87,40.59l12.761-40.59h15.729
		L-65.977-123h-17.6l-12.65-39.6L-108.326-123z"/>
	<path fill="#FFFFFF" d="M2.991-123v-78.98h17.38V-123H2.991z"/>
	<path fill="#FFFFFF" d="M64.041-180.97c7.626,0.074,13.566,1.578,17.82,4.51c4.252,2.934,6.38,8.544,6.38,16.83V-123h-15.29v-34.87
		c0-4.032-0.66-6.746-1.98-8.14c-1.319-1.393-4.033-2.09-8.14-2.09l-12.32-0.11V-123h-15.29v-57.97H64.041z"/>
</g>
</svg>
