<?xml version="1.0" encoding="UTF-8"?><!DOCTYPE svg  PUBLIC '-//W3C//DTD SVG 1.1//EN'  'http://www.w3.org/Graphics/SVG/1.1/DTD/svg11.dtd'><svg width="1200px" height="675px" enable-background="new -374.5 -273.15 1200 675" version="1.1" viewBox="-374.5 -273.15 1200 675" xml:space="preserve" xmlns="http://www.w3.org/2000/svg"><rect x="-374.5" y="-273.15" width="1200" height="675" fill="#444"/><path d="m-212.09 308.23h-45.147l40.203-206.6h86.641c26.014 0 45.147 6.881 56.972 20.425 12.039 13.759 15.479 32.679 10.749 57.402-1.935 10.104-5.374 19.349-9.89 27.731-4.729 8.386-10.749 16.125-18.273 23.005-9.029 8.385-18.919 14.404-29.884 18.06-10.964 3.655-24.938 5.373-42.138 5.373h-38.698l-10.535 54.608v-4e-3zm98.68-164.68c-5.804-6.234-17.199-9.459-34.183-9.459h-30.743l-16.77 86.642h27.304c18.059 0 31.603-3.441 40.633-10.321 8.814-6.878 14.834-18.274 18.059-34.183 2.795-15.48 1.29-26.229-4.3-32.679z" fill="#fff"/><path d="m-29.776 46.595h44.718l-10.75 55.038h39.773c25.154 0 42.353 4.3 51.813 13.114 9.459 8.813 12.469 23.003 8.6 42.567l-18.705 96.316h-45.362l17.844-91.587c1.935-10.319 1.29-17.414-2.15-21.284-3.439-3.869-10.964-5.589-22.358-5.589h-35.69l-23.004 118.46h-44.931l40.202-207.04v5e-3z" fill="#fff"/><path d="m139.2 308.23h-45.147l40.202-206.6h86.855c26.016 0 45.148 6.881 56.973 20.425 12.041 13.759 15.479 32.679 10.748 57.402-1.934 10.104-5.373 19.349-9.889 27.731-4.729 8.386-10.748 16.125-18.273 23.005-9.029 8.385-18.918 14.404-29.885 18.06-10.963 3.655-24.938 5.373-42.137 5.373h-38.697l-10.75 54.608v-4e-3zm98.895-164.68c-5.805-6.234-17.199-9.459-34.184-9.459h-30.958l-16.769 86.642h27.303c18.06 0 31.604-3.441 40.634-10.321 8.813-6.878 14.833-18.274 18.058-34.183 2.796-15.48 1.505-26.229-4.084-32.679z" fill="#fff"/><path d="m423.64 142.05c-12.254-29.238-22.573-54.607-12.469-72.236 3.869-5.375 8.17-8.169 12.898-8.169 9.676 0 18.487 10.534 18.487 10.534l12.257 14.834-7.738-17.629c-0.433-0.645-13.547-30.528-36.979-30.528-8.17 0-16.77 3.655-25.153 10.965l-0.216 0.215c-20.424 23.649-0.43 68.366 17.414 107.71l13.113 30.528c6.021 15.693 12.041 34.398 8.385 48.158-5.588 21.499-24.723 36.118-24.938 36.332l-12.254 9.46 14.832-4.73c1.506-0.43 34.397-11.18 42.354-39.772 4.943-23.435-1.289-46.867-7.524-64.927 0.86-0.645-0.857 0.646 0 0l-11.394-29.453" fill="#fff"/><path d="m459.97 59.064-15.266-16.769 10.967 19.994c0.213 0.215 13.543 25.154-3.44 54.178-6.234 9.029-15.908 18.059-28.164 27.089l-22.144 14.403c-0.217-0.214-0.217-0.43 0 0l-0.86 0.646c-24.724 14.189-47.728 22.789-48.158 23.003-34.183 15.266-55.68 38.914-58.691 65.142-2.363 19.781 6.881 39.13 24.941 52.674l0.213 0.214c11.395 6.88 23.647 10.319 36.549 10.319 33.754 0 60.197-23.433 61.271-24.508l16.555-14.835-19.566 10.319c-0.213 0-16.551 8.6-33.537 8.6-15.264 0-26.012-6.664-32.461-20.208-8.172-28.809 20.424-48.588 53.316-71.376 4.299-3.011 8.813-6.236 13.33-9.246l0.213-0.215 19.562-14.618c0.218-0.431 0.861-0.861 0.861-0.861 16.125-13.328 37.41-34.183 42.354-63.422 3.868-26.444-16.986-49.448-17.845-50.523z" fill="#0F0F0F"/><path d="m483.62 216.22h41.924l-7.525 38.054h-41.922l7.523-38.054z" fill="#fff"/><path d="m557.9 223.01 27.51-22.558c9.893 13.114 21.475 21.508 40.057 21.508 20.271 0 30.646-12.326 30.646-23.867 0-12.326-7.963-19.146-27.269-19.146h-18.34l6.584-33.309h21.168c17.135 0 31.854-8.13 31.854-23.342 0-10.754-9.654-17.834-22.201-17.834-14.961 0-24.855 6.818-37.162 18.883l-20.512-25.439c15.926-17.836 34.268-29.639 62.018-29.639 35.473 0 55.984 21.77 55.984 47.734 0 22.556-12.791 39.079-37.646 46.947 11.824 5.245 22.926 17.833 22.926 36.193 0 33.309-27.993 59.011-70.705 59.011-35.714 1e-3 -55.019-17.572-64.912-35.142z" fill="#fff"/><g enable-background="new    " fill="#fff"><path d="m-232.14-164.04h22.947l9.688 59.215c0.201 1.857 0.434 3.946 0.696 6.267 0.262 2.322 0.534 4.773 0.817 7.356 0.08-2.422 0.242-4.753 0.484-6.993s0.524-4.349 0.848-6.327l10.051-59.518h28.881l10.656 59.275c0.363 1.656 0.686 3.643 0.969 5.964 0.282 2.322 0.545 4.854 0.787 7.599 0.363-4.44 0.636-7.478 0.817-9.112s0.373-2.976 0.575-4.026l9.99-59.699h21.494l-18.586 86.036h-29.305l-11.141-61.395c-0.202-1.008-0.424-2.755-0.666-5.237s-0.484-5.479-0.727-8.991c-0.242 3.996-0.454 7.166-0.636 9.506-0.182 2.341-0.333 3.875-0.454 4.602l-10.413 61.515h-29.002l-18.77-86.037z"/><path d="m-102.81-171h21.857v38.084c2.22-3.43 5.136-6.044 8.749-7.841 3.612-1.795 7.72-2.694 12.321-2.694 7.79 0 13.724 2.392 17.801 7.175 4.076 4.783 6.115 11.776 6.115 20.979v37.297h-21.676v-32.756c0-5.004-0.889-8.728-2.664-11.171-1.776-2.442-4.48-3.663-8.113-3.663-3.795 0-6.832 1.535-9.112 4.602-2.281 3.068-3.421 7.185-3.421 12.352v30.636h-21.857v-93z"/><path d="m39.051-111.36v33.361h-18.951l-0.484-9.93c-2.584 3.674-5.702 6.368-9.354 8.083-3.653 1.716-8.063 2.573-13.229 2.573-6.459 0-11.605-1.836-15.439-5.51-3.835-3.673-5.752-8.577-5.752-14.713 0-7.063 2.785-12.3 8.355-15.712 5.57-3.411 14.147-5.116 25.732-5.116h8.537v-0.848c0-3.471-1.332-6.135-3.996-7.992-2.664-1.856-6.539-2.785-11.625-2.785-2.503 0-5.349 0.445-8.537 1.332-3.189 0.888-6.62 2.18-10.293 3.875l-0.363-14.41c3.552-1.493 7.396-2.604 11.534-3.33 4.137-0.727 8.688-1.09 13.653-1.09 10.414 0 18.053 2.594 22.917 7.78 4.862 5.188 7.295 13.332 7.295 24.432zm-24.28 4.359c-6.418 0-11.04 0.696-13.865 2.089-2.826 1.393-4.238 3.624-4.238 6.69 0 2.22 0.757 4.017 2.271 5.389 1.514 1.373 3.521 2.059 6.024 2.059 3.955 0 7.194-1.332 9.718-3.996 2.522-2.664 3.784-6.135 3.784-10.414v-1.816h-3.694z"/><path d="m82.342-163.43v21.676h15.621v15.742h-15.621v21.979c0 4.723 0.767 8.053 2.301 9.99 1.533 1.938 4.157 2.906 7.871 2.906 0.524 0 1.19-0.07 1.998-0.212 0.807-0.141 1.957-0.394 3.451-0.757l0.363 14.229c-2.342 0.524-4.612 0.928-6.812 1.211-2.2 0.282-4.35 0.424-6.448 0.424-8.639 0-14.885-2.129-18.739-6.388-3.855-4.258-5.782-11.19-5.782-20.798v-22.584h-12.291v-15.742h13.502v-14.713l20.586-6.963z"/><path d="m116.07-164.04h20.404l-11.988 32.937h-16.408l7.992-32.937z"/><path d="m194.66-140.12-2.119 15.379c-2.906-1.655-5.843-2.916-8.81-3.784s-5.803-1.302-8.507-1.302c-2.664 0-4.723 0.475-6.176 1.423-1.453 0.949-2.18 2.292-2.18 4.026 0 2.261 2.967 4.199 8.9 5.813 1.856 0.525 3.33 0.949 4.42 1.271 6.781 2.019 11.514 4.48 14.198 7.387 2.684 2.906 4.026 6.882 4.026 11.928 0 6.741-2.624 12.049-7.871 15.924-5.248 3.875-12.473 5.813-21.676 5.813-3.916 0-7.78-0.303-11.595-0.908s-7.559-1.514-11.231-2.725l1.393-16.348c3.067 1.574 6.256 2.775 9.566 3.603s6.66 1.241 10.051 1.241c3.188 0 5.59-0.434 7.205-1.302 1.614-0.867 2.422-2.169 2.422-3.905 0-2.583-3.27-4.844-9.809-6.781-1.615-0.484-2.887-0.868-3.814-1.15-6.66-2.18-11.303-4.611-13.926-7.296-2.624-2.684-3.936-6.206-3.936-10.565 0-6.66 2.623-11.837 7.871-15.53 5.247-3.693 12.634-5.54 22.16-5.54 3.107 0 6.297 0.283 9.566 0.848 3.273 0.563 6.562 1.39 9.872 2.48z"/><path d="m248.36-164.04h28.639l24.945 51.586c0.848 1.736 1.836 4.147 2.967 7.235 1.13 3.088 2.381 6.872 3.754 11.353-0.727-4.238-1.262-8.133-1.604-11.686-0.344-3.551-0.515-6.801-0.515-9.748v-48.74h20.707v86.037h-28.518l-25.914-53.463c-1.211-2.461-2.321-5.136-3.33-8.022-1.01-2.885-1.938-6.024-2.785-9.415 0.807 5.126 1.402 9.839 1.786 14.138 0.383 4.299 0.575 8.083 0.575 11.353v45.409h-20.707v-86.037z"/><path d="m405.84-108.76v5.328h-44.744c0.443 4.158 2.24 7.367 5.389 9.627 3.148 2.261 7.387 3.391 12.715 3.391 3.188 0 6.559-0.443 10.111-1.332 3.552-0.888 7.205-2.22 10.959-3.996v15.621c-3.553 1.292-7.256 2.26-11.11 2.906-3.855 0.646-7.882 0.969-12.079 0.969-11.625 0-20.707-3.067-27.246-9.203-6.539-6.135-9.809-14.652-9.809-25.551 0-9.93 3.017-17.821 9.052-23.674 6.034-5.852 14.178-8.779 24.431-8.779 10.333 0 18.305 3.007 23.916 9.021 5.609 6.015 8.415 14.572 8.415 25.672zm-19.315-7.568c-0.444-4.278-1.816-7.638-4.117-10.081-2.301-2.442-5.228-3.663-8.779-3.663-3.512 0-6.398 1.221-8.658 3.663-2.261 2.443-3.633 5.803-4.117 10.081h25.671z"/><path d="m411.11-141.76h23.068l8.779 40.082c0.282 1.292 0.524 2.674 0.727 4.147 0.201 1.474 0.363 3.098 0.484 4.874 0.242-2.018 0.484-3.814 0.727-5.389s0.464-2.785 0.666-3.633l9.93-40.082h26.035l9.566 40.93c0.282 1.332 0.534 2.685 0.757 4.057 0.222 1.373 0.373 2.746 0.454 4.117 0.242-2.825 0.424-4.773 0.545-5.843 0.121-1.069 0.222-1.786 0.303-2.149l9.203-41.111h21.191l-19.435 63.756h-24.945l-10.414-42.383c-0.242-1.008-0.435-2.2-0.575-3.572-0.142-1.372-0.232-2.987-0.272-4.844-0.283 2.341-0.515 4.208-0.696 5.601s-0.333 2.331-0.454 2.815l-10.9 42.383h-25.188l-19.556-63.756z"/><path d="m570.77-164.04h22.947v86.037h-22.947v-86.037z"/><path d="m677.15-115.3v37.297h-21.676v-32.756c0-5.004-0.889-8.728-2.664-11.171-1.776-2.442-4.48-3.663-8.113-3.663-3.795 0-6.832 1.535-9.112 4.602-2.281 3.068-3.421 7.185-3.421 12.352v30.636h-21.857v-63.756h19.859v11.443c2.502-4.278 5.731-7.538 9.688-9.778 3.955-2.24 8.416-3.36 13.381-3.36 7.79 0 13.724 2.392 17.801 7.175 4.075 4.783 6.114 11.776 6.114 20.979z"/></g></svg>